# xmcd
#
# Track frame offsets: 
#        150
#        13034
#        31863
#        65456
#        81944
#        95931
#        112042
#        128818
#        150039
#        171863
#
# Disc length: 2593 seconds
#
# Revision: 0
# Processed by: cddbd v1.5.2PL0 Copyright (c) Steve Scherf et al.
# Submitted via: ExactAudioCopy v1.0b1
#
DISCID=780a1f0a
DTITLE=Doug Kershaw - Alice and Pickin'
DYEAR=1975
DGENRE=Folk/Rock
TTITLE0=Diggy Diggy Lo
TTITLE1=Battle of New Orleans
TTITLE2=Orange Blossom Special-You Are My Sunshine
TTITLE3=Natural Man
TTITLE4=Alive and Pickin'
TTITLE5=Cajun Joe (The Bully of the Bayou)
TTITLE6=The Cajun Stripper
TTITLE7=Dixie Creole
TTITLE8=Louisiana Man
TTITLE9=Uncle Pen
EXTD=
EXTT0=
EXTT1=
EXTT2=
EXTT3=
EXTT4=
EXTT5=
EXTT6=
EXTT7=
EXTT8=
EXTT9=
PLAYORDER=
